<svg xmlns="http://www.w3.org/2000/svg" width="567.549" height="32.076" viewBox="0 0 567.549 32.076">
  <g id="dot-squares_svg" data-name="dot-squares svg" transform="translate(-132 -8588.679)">
    <g id="Group_52" data-name="Group 52" transform="translate(132 8588.679)">
      <path id="Path_585" data-name="Path 585" d="M702.2,1053.74l-6.2-.3-12.938.3a.578.578,0,0,0-.578.578l-.241,6.119v6.191l.241,6.825a.578.578,0,0,0,.578.578l6.174-.238,12.961.238a.578.578,0,0,0,.578-.578l.333-4.589v-7.281l-.333-7.266A.578.578,0,0,0,702.2,1053.74Zm-16.972,16.3c-2.809-5.322,5.9-9.484,7.331-2.977C693.617,1071.163,687.33,1073.869,685.228,1070.038Z" transform="translate(-652.555 -1044.542)" fill="#d98c18"/>
      <path id="Path_586" data-name="Path 586" d="M770.916,1053.667a.577.577,0,0,0-.578-.576l-6.2-.3-12.938.3a.577.577,0,0,0-.578.576l-.241,6.121v6.192l.241,6.825a.578.578,0,0,0,.578.578l6.174-.239,12.961.239a.578.578,0,0,0,.578-.578l.333-4.589v-7.281Zm-10.1,9.421c-2.807-5.32,5.9-9.482,7.333-2.975C769.207,1064.214,762.919,1066.921,760.815,1063.088Z" transform="translate(-590.242 -1045.136)" fill="#d98c18"/>
      <path id="Path_587" data-name="Path 587" d="M719.443,1049.091l-6.2-.3-12.938.3a.577.577,0,0,0-.578.576l-.239,6.121v6.192l.239,6.825a.578.578,0,0,0,.578.578l6.174-.239,12.961.239a.578.578,0,0,0,.578-.578l.333-4.589v-7.281l-.333-7.268A.577.577,0,0,0,719.443,1049.091Zm-12.971,10.832c-2.807-5.321,5.9-9.483,7.333-2.975C714.863,1061.049,708.576,1063.756,706.472,1059.923Z" transform="translate(-636.784 -1048.794)" fill="#d98c18"/>
      <path id="Path_588" data-name="Path 588" d="M735.443,1055.091l-6.2-.3-12.938.3a.577.577,0,0,0-.578.576l-.239,6.121v6.192l.239,6.825a.578.578,0,0,0,.578.578l6.174-.239,12.961.239a.578.578,0,0,0,.578-.578l.333-4.589v-7.281l-.333-7.268A.577.577,0,0,0,735.443,1055.091Zm-11.677,13.671c-2.807-5.32,5.9-9.483,7.333-2.975C732.158,1069.888,725.87,1072.6,723.766,1068.762Z" transform="translate(-622.152 -1043.307)" fill="#d98c18"/>
      <path id="Path_589" data-name="Path 589" d="M686.692,1049.687l-6.2-.393-12.938.393c-.32,0-.578.343-.578.766l-.241,8.112v8.206l.241,9.046c0,.425.258.768.578.768l6.174-.316,12.961.316c.32,0,.578-.343.578-.768l.333-6.082v-9.649l-.333-9.632C687.27,1050.029,687.012,1049.687,686.692,1049.687Zm-10.225,16.666c-2.808-5.323,5.9-9.484,7.331-2.977C684.858,1067.478,678.569,1070.183,676.466,1066.352Z" transform="translate(-666.737 -1048.337)" fill="#d98c18"/>
      <path id="Path_590" data-name="Path 590" d="M751.443,1050.208l-6.2-.393-12.938.393c-.32,0-.578.342-.578.766l-.239,8.112v8.206l.239,9.046c0,.425.259.768.578.768l6.174-.316,12.961.316c.32,0,.578-.342.578-.768l.333-6.082v-9.649l-.333-9.632C752.021,1050.55,751.763,1050.208,751.443,1050.208Zm-15.532,11.368c-2.809-5.321,5.9-9.483,7.331-2.975C744.3,1062.7,738.013,1065.408,735.911,1061.576Z" transform="translate(-607.52 -1047.86)" fill="#d98c18"/>
    </g>
    <g id="Group_52-2" data-name="Group 52" transform="translate(325.271 8588.679)">
      <path id="Path_585-2" data-name="Path 585" d="M702.2,1053.74l-6.2-.3-12.938.3a.578.578,0,0,0-.578.578l-.241,6.119v6.191l.241,6.825a.578.578,0,0,0,.578.578l6.174-.238,12.961.238a.578.578,0,0,0,.578-.578l.333-4.589v-7.281l-.333-7.266A.578.578,0,0,0,702.2,1053.74Zm-16.972,16.3c-2.809-5.322,5.9-9.484,7.331-2.977C693.617,1071.163,687.33,1073.869,685.228,1070.038Z" transform="translate(-652.555 -1044.542)" fill="#d98c18"/>
      <path id="Path_586-2" data-name="Path 586" d="M770.916,1053.667a.577.577,0,0,0-.578-.576l-6.2-.3-12.938.3a.577.577,0,0,0-.578.576l-.241,6.121v6.192l.241,6.825a.578.578,0,0,0,.578.578l6.174-.239,12.961.239a.578.578,0,0,0,.578-.578l.333-4.589v-7.281Zm-10.1,9.421c-2.807-5.32,5.9-9.482,7.333-2.975C769.207,1064.214,762.919,1066.921,760.815,1063.088Z" transform="translate(-590.242 -1045.136)" fill="#d98c18"/>
      <path id="Path_587-2" data-name="Path 587" d="M719.443,1049.091l-6.2-.3-12.938.3a.577.577,0,0,0-.578.576l-.239,6.121v6.192l.239,6.825a.578.578,0,0,0,.578.578l6.174-.239,12.961.239a.578.578,0,0,0,.578-.578l.333-4.589v-7.281l-.333-7.268A.577.577,0,0,0,719.443,1049.091Zm-12.971,10.832c-2.807-5.321,5.9-9.483,7.333-2.975C714.863,1061.049,708.576,1063.756,706.472,1059.923Z" transform="translate(-636.784 -1048.794)" fill="#d98c18"/>
      <path id="Path_588-2" data-name="Path 588" d="M735.443,1055.091l-6.2-.3-12.938.3a.577.577,0,0,0-.578.576l-.239,6.121v6.192l.239,6.825a.578.578,0,0,0,.578.578l6.174-.239,12.961.239a.578.578,0,0,0,.578-.578l.333-4.589v-7.281l-.333-7.268A.577.577,0,0,0,735.443,1055.091Zm-11.677,13.671c-2.807-5.32,5.9-9.483,7.333-2.975C732.158,1069.888,725.87,1072.6,723.766,1068.762Z" transform="translate(-622.152 -1043.307)" fill="#d98c18"/>
      <path id="Path_589-2" data-name="Path 589" d="M686.692,1049.687l-6.2-.393-12.938.393c-.32,0-.578.343-.578.766l-.241,8.112v8.206l.241,9.046c0,.425.258.768.578.768l6.174-.316,12.961.316c.32,0,.578-.343.578-.768l.333-6.082v-9.649l-.333-9.632C687.27,1050.029,687.012,1049.687,686.692,1049.687Zm-10.225,16.666c-2.808-5.323,5.9-9.484,7.331-2.977C684.858,1067.478,678.569,1070.183,676.466,1066.352Z" transform="translate(-666.737 -1048.337)" fill="#d98c18"/>
      <path id="Path_590-2" data-name="Path 590" d="M751.443,1050.208l-6.2-.393-12.938.393c-.32,0-.578.342-.578.766l-.239,8.112v8.206l.239,9.046c0,.425.259.768.578.768l6.174-.316,12.961.316c.32,0,.578-.342.578-.768l.333-6.082v-9.649l-.333-9.632C752.021,1050.55,751.763,1050.208,751.443,1050.208Zm-15.532,11.368c-2.809-5.321,5.9-9.483,7.331-2.975C744.3,1062.7,738.013,1065.408,735.911,1061.576Z" transform="translate(-607.52 -1047.86)" fill="#d98c18"/>
    </g>
    <g id="Group_52-3" data-name="Group 52" transform="translate(518.542 8588.679)">
      <path id="Path_585-3" data-name="Path 585" d="M702.2,1053.74l-6.2-.3-12.938.3a.578.578,0,0,0-.578.578l-.241,6.119v6.191l.241,6.825a.578.578,0,0,0,.578.578l6.174-.238,12.961.238a.578.578,0,0,0,.578-.578l.333-4.589v-7.281l-.333-7.266A.578.578,0,0,0,702.2,1053.74Zm-16.972,16.3c-2.809-5.322,5.9-9.484,7.331-2.977C693.617,1071.163,687.33,1073.869,685.228,1070.038Z" transform="translate(-652.555 -1044.542)" fill="#d98c18"/>
      <path id="Path_586-3" data-name="Path 586" d="M770.916,1053.667a.577.577,0,0,0-.578-.576l-6.2-.3-12.938.3a.577.577,0,0,0-.578.576l-.241,6.121v6.192l.241,6.825a.578.578,0,0,0,.578.578l6.174-.239,12.961.239a.578.578,0,0,0,.578-.578l.333-4.589v-7.281Zm-10.1,9.421c-2.807-5.32,5.9-9.482,7.333-2.975C769.207,1064.214,762.919,1066.921,760.815,1063.088Z" transform="translate(-590.242 -1045.136)" fill="#d98c18"/>
      <path id="Path_587-3" data-name="Path 587" d="M719.443,1049.091l-6.2-.3-12.938.3a.577.577,0,0,0-.578.576l-.239,6.121v6.192l.239,6.825a.578.578,0,0,0,.578.578l6.174-.239,12.961.239a.578.578,0,0,0,.578-.578l.333-4.589v-7.281l-.333-7.268A.577.577,0,0,0,719.443,1049.091Zm-12.971,10.832c-2.807-5.321,5.9-9.483,7.333-2.975C714.863,1061.049,708.576,1063.756,706.472,1059.923Z" transform="translate(-636.784 -1048.794)" fill="#d98c18"/>
      <path id="Path_588-3" data-name="Path 588" d="M735.443,1055.091l-6.2-.3-12.938.3a.577.577,0,0,0-.578.576l-.239,6.121v6.192l.239,6.825a.578.578,0,0,0,.578.578l6.174-.239,12.961.239a.578.578,0,0,0,.578-.578l.333-4.589v-7.281l-.333-7.268A.577.577,0,0,0,735.443,1055.091Zm-11.677,13.671c-2.807-5.32,5.9-9.483,7.333-2.975C732.158,1069.888,725.87,1072.6,723.766,1068.762Z" transform="translate(-622.152 -1043.307)" fill="#d98c18"/>
      <path id="Path_589-3" data-name="Path 589" d="M686.692,1049.687l-6.2-.393-12.938.393c-.32,0-.578.343-.578.766l-.241,8.112v8.206l.241,9.046c0,.425.258.768.578.768l6.174-.316,12.961.316c.32,0,.578-.343.578-.768l.333-6.082v-9.649l-.333-9.632C687.27,1050.029,687.012,1049.687,686.692,1049.687Zm-10.225,16.666c-2.808-5.323,5.9-9.484,7.331-2.977C684.858,1067.478,678.569,1070.183,676.466,1066.352Z" transform="translate(-666.737 -1048.337)" fill="#d98c18"/>
      <path id="Path_590-3" data-name="Path 590" d="M751.443,1050.208l-6.2-.393-12.938.393c-.32,0-.578.342-.578.766l-.239,8.112v8.206l.239,9.046c0,.425.259.768.578.768l6.174-.316,12.961.316c.32,0,.578-.342.578-.768l.333-6.082v-9.649l-.333-9.632C752.021,1050.55,751.763,1050.208,751.443,1050.208Zm-15.532,11.368c-2.809-5.321,5.9-9.483,7.331-2.975C744.3,1062.7,738.013,1065.408,735.911,1061.576Z" transform="translate(-607.52 -1047.86)" fill="#d98c18"/>
    </g>
  </g>
</svg>
