<svg id="logo-sdzwa" xmlns="http://www.w3.org/2000/svg" width="273.09" height="70.212" viewBox="0 0 273.09 70.212">
  <g id="Group_65" data-name="Group 65">
    <path id="Path_635" data-name="Path 635" d="M498.57,444.958v-4.846a8.935,8.935,0,0,0,6.256,2.718c1.179,0,1.795-.462,1.795-1.281,0-.616-.333-.948-1.231-1.281l-3.257-1.256a5.046,5.046,0,0,1-3.487-4.871c0-3.384,2.922-5.692,6.871-5.692a8.987,8.987,0,0,1,5.384,1.616v4.769a8.5,8.5,0,0,0-5.178-2.1c-.923,0-1.512.41-1.512,1.025,0,.564.333.9,1.1,1.179l3.024,1.2a4.991,4.991,0,0,1,3.411,4.973c0,3.768-2.82,6.05-7.229,6.05A8.456,8.456,0,0,1,498.57,444.958Z" transform="translate(-418.896 -414.819)" fill="#48433d"/>
    <path id="Path_636" data-name="Path 636" d="M585.622,464.525c0,2.8-1.308,4.153-3.359,4.153a3,3,0,0,1-2.718-1.281,4.831,4.831,0,0,1-3.691,1.281c-2.46,0-4.384-1.539-4.384-3.743s1.641-3.743,4.717-4.282l2.718-.487c-.179-.794-1.077-1.358-2.487-1.358a5.855,5.855,0,0,0-4.59,1.974c0-3.974,2.487-5.692,5.846-5.692,3.845,0,5.846,2.076,5.846,5.615v3.024c0,.667.308,1.179,1.077,1.179A1.453,1.453,0,0,0,585.622,464.525Zm-6.69-.025v-1.564l-1.462.333c-.819.179-1.179.539-1.179,1.077a.923.923,0,0,0,1.05.9A1.84,1.84,0,0,0,578.932,464.5Z" transform="translate(-477.773 -436.335)" fill="#48433d"/>
    <path id="Path_637" data-name="Path 637" d="M662.717,460.021V468.3h-4.588v-7.127a1.631,1.631,0,0,0-1.641-1.743,2.169,2.169,0,0,0-2.051,1.462v7.41H649.85V455.485h4.588v1.462A4.4,4.4,0,0,1,658.1,455.1C661.205,455.1,662.717,457.124,662.717,460.021Z" transform="translate(-541.076 -436.343)" fill="#48433d"/>
    <path id="Path_638" data-name="Path 638" d="M770.321,439.412c0,5.794-4.282,8.974-9.51,8.974H753.53V430.44h7.281C766.039,430.44,770.321,433.62,770.321,439.412Zm-5.024,0c0-3.307-2.179-4.9-4.948-4.9h-2.026v9.793h2.487C763.117,444.309,765.3,442.693,765.3,439.412Z" transform="translate(-624.812 -416.427)" fill="#48433d"/>
    <path id="Path_639" data-name="Path 639" d="M847.89,426.51a2.527,2.527,0,1,1,2.512,2.41A2.4,2.4,0,0,1,847.89,426.51Zm.2,3.9h4.59v12.819h-4.59Z" transform="translate(-701.021 -411.266)" fill="#48433d"/>
    <path id="Path_640" data-name="Path 640" d="M889.175,464.67a6.354,6.354,0,0,0,3.9-1.025c0,3.1-2,5.051-5.819,5.051-4.409,0-6.973-2.691-6.973-6.665,0-4.128,2.537-6.921,6.64-6.921,3.9,0,6.333,2.641,6.333,7.358h-8.127C885.328,464,887.226,464.67,889.175,464.67ZM885.1,459.85h3.487a1.593,1.593,0,0,0-1.693-1.795A1.708,1.708,0,0,0,885.1,459.85Z" transform="translate(-727.18 -436.351)" fill="#48433d"/>
    <path id="Path_641" data-name="Path 641" d="M1021.14,461.867c0-4.384,3.359-6.767,7.127-6.767,3.793,0,7.127,2.383,7.127,6.767,0,4.409-3.332,6.819-7.127,6.819C1024.5,468.686,1021.14,466.276,1021.14,461.867Zm9.46,0a2.331,2.331,0,1,0-4.64,0,2.336,2.336,0,1,0,4.64,0Z" transform="translate(-840.945 -436.343)" fill="#48433d"/>
    <path id="Path_642" data-name="Path 642" d="M1130.367,444.078v4.307H1114.42l8.254-13.663h-7.537V430.44h15.227l-8.127,13.638Z" transform="translate(-916.281 -416.427)" fill="#48433d"/>
    <path id="Path_643" data-name="Path 643" d="M1199.32,461.867c0-4.384,3.359-6.767,7.127-6.767,3.793,0,7.127,2.383,7.127,6.767,0,4.409-3.334,6.819-7.127,6.819C1202.679,468.686,1199.32,466.276,1199.32,461.867Zm9.46,0a2.331,2.331,0,1,0-4.64,0,2.336,2.336,0,1,0,4.64,0Z" transform="translate(-984.85 -436.343)" fill="#48433d"/>
    <path id="Path_644" data-name="Path 644" d="M1277.04,461.867c0-4.384,3.359-6.767,7.127-6.767,3.793,0,7.127,2.383,7.127,6.767,0,4.409-3.333,6.819-7.127,6.819C1280.4,468.686,1277.04,466.276,1277.04,461.867Zm9.362,0a2.332,2.332,0,1,0-4.64,0,2.336,2.336,0,1,0,4.64,0Z" transform="translate(-1047.62 -436.343)" fill="#48433d"/>
    <path id="Path_645" data-name="Path 645" d="M521.2,556.08l-5.126,17.945H511.3L507.661,563l-3.614,11.024h-4.771L494.15,556.08h5.076l2.768,11.382,3.487-11.382h4.384l3.486,11.382,2.768-11.382Z" transform="translate(-415.326 -517.898)" fill="#48433d"/>
    <path id="Path_646" data-name="Path 646" d="M640.58,552.15a2.527,2.527,0,1,1,2.512,2.41A2.4,2.4,0,0,1,640.58,552.15Zm.2,3.9h4.59v12.819h-4.59Z" transform="translate(-533.589 -512.738)" fill="#48433d"/>
    <path id="Path_647" data-name="Path 647" d="M678.29,552.08h4.59v18.715h-4.59Z" transform="translate(-564.045 -514.668)" fill="#48433d"/>
    <path id="Path_648" data-name="Path 648" d="M724.574,552.08v18.715h-4.563v-1.127a4.048,4.048,0,0,1-3.384,1.512c-3.257,0-5.948-2.46-5.948-6.819s2.691-6.767,5.948-6.767a3.979,3.979,0,0,1,3.384,1.512V552.08Zm-4.563,13.075v-1.564a2.3,2.3,0,0,0-4.536.769,2.353,2.353,0,0,0,2.306,2.614A2.313,2.313,0,0,0,720.011,565.155Z" transform="translate(-590.205 -514.668)" fill="#48433d"/>
    <path id="Path_649" data-name="Path 649" d="M796.37,552.08h4.59v18.715h-4.59Z" transform="translate(-659.411 -514.668)" fill="#48433d"/>
    <path id="Path_650" data-name="Path 650" d="M831.96,552.15a2.527,2.527,0,1,1,2.512,2.41A2.4,2.4,0,0,1,831.96,552.15Zm.2,3.9h4.59v12.819h-4.59Z" transform="translate(-688.155 -512.738)" fill="#48433d"/>
    <path id="Path_651" data-name="Path 651" d="M870.45,556.3v.589h3.359v3.639H870.45v9.177h-4.563v-9.177H863.4v-3.639h2.487v-.539c0-3.691,2.026-5.615,5.665-5.615a7.681,7.681,0,0,1,2.333.36v3.743a5.3,5.3,0,0,0-1.385-.206C871.039,554.639,870.45,555.332,870.45,556.3Z" transform="translate(-713.547 -513.586)" fill="#48433d"/>
    <path id="Path_652" data-name="Path 652" d="M927.345,590.31a6.354,6.354,0,0,0,3.9-1.025c0,3.1-2,5.051-5.819,5.051-4.409,0-6.973-2.691-6.973-6.665,0-4.128,2.537-6.921,6.64-6.921,3.9,0,6.332,2.641,6.332,7.358H923.3C923.5,589.643,925.4,590.31,927.345,590.31Zm-4.078-4.821h3.487a1.593,1.593,0,0,0-1.693-1.795A1.71,1.71,0,0,0,923.267,585.49Z" transform="translate(-758.008 -537.823)" fill="#48433d"/>
    <path id="Path_653" data-name="Path 653" d="M1023.7,570.359h-6.333l-1.256,3.666h-5.051l6.921-17.945h5.049l6.948,17.945h-5.024Zm-1.308-3.845-1.872-5.486-1.872,5.486Z" transform="translate(-832.803 -517.898)" fill="#48433d"/>
    <path id="Path_654" data-name="Path 654" d="M1114.89,552.08h4.59v18.715h-4.59Z" transform="translate(-916.661 -514.668)" fill="#48433d"/>
    <path id="Path_655" data-name="Path 655" d="M1152.07,552.08h4.59v18.715h-4.59Z" transform="translate(-946.689 -514.668)" fill="#48433d"/>
    <path id="Path_656" data-name="Path 656" d="M1187.65,552.15a2.527,2.527,0,1,1,2.512,2.41A2.4,2.4,0,0,1,1187.65,552.15Zm.206,3.9h4.59v12.819h-4.59Z" transform="translate(-975.425 -512.738)" fill="#48433d"/>
    <path id="Path_657" data-name="Path 657" d="M1235.522,590.165c0,2.795-1.308,4.153-3.359,4.153a3,3,0,0,1-2.718-1.281,4.831,4.831,0,0,1-3.691,1.281c-2.46,0-4.384-1.539-4.384-3.743s1.641-3.743,4.717-4.282l2.718-.487c-.179-.794-1.077-1.358-2.487-1.358a5.855,5.855,0,0,0-4.59,1.974c0-3.974,2.487-5.692,5.846-5.692,3.845,0,5.846,2.076,5.846,5.615v3.024c0,.667.308,1.179,1.077,1.179A1.46,1.46,0,0,0,1235.522,590.165Zm-6.692-.025v-1.564l-1.462.333c-.819.179-1.179.539-1.179,1.077a.923.923,0,0,0,1.05.9A1.836,1.836,0,0,0,1228.83,590.14Z" transform="translate(-1002.658 -537.807)" fill="#48433d"/>
    <path id="Path_658" data-name="Path 658" d="M1312.617,585.661v8.281h-4.588v-7.127a1.631,1.631,0,0,0-1.641-1.743,2.169,2.169,0,0,0-2.051,1.462v7.41h-4.588V581.125h4.588v1.462A4.4,4.4,0,0,1,1308,580.74C1311.1,580.74,1312.617,582.764,1312.617,585.661Z" transform="translate(-1065.961 -537.815)" fill="#48433d"/>
    <path id="Path_659" data-name="Path 659" d="M1373.3,587.661a7.274,7.274,0,0,1,11.28-5.717v4.282a4.357,4.357,0,0,0-3.359-1.358c-1.9,0-3.153.9-3.153,2.512,0,1.564,1.2,2.666,3.334,2.666a5.23,5.23,0,0,0,3.436-1.05c0,3.743-1.9,5.332-5,5.332C1375.993,594.326,1373.3,591.762,1373.3,587.661Z" transform="translate(-1125.363 -537.815)" fill="#48433d"/>
    <path id="Path_660" data-name="Path 660" d="M1445.515,590.31a6.354,6.354,0,0,0,3.9-1.025c0,3.1-2,5.051-5.819,5.051-4.409,0-6.973-2.691-6.973-6.665,0-4.128,2.537-6.921,6.64-6.921,3.9,0,6.333,2.641,6.333,7.358h-8.127C1441.667,589.643,1443.566,590.31,1445.515,590.31Zm-4.076-4.821h3.485a1.593,1.593,0,0,0-1.693-1.795A1.708,1.708,0,0,0,1441.439,585.49Z" transform="translate(-1176.503 -537.823)" fill="#48433d"/>
    <path id="Path_661" data-name="Path 661" d="M959.692,463.094h-4.051c-.462,0-1.1-.077-1.1-.616a.722.722,0,0,1,.154-.462,8.225,8.225,0,0,0,1.82.179c3.513,0,5.717-1.718,5.717-4.486a2.938,2.938,0,0,0-.017-.348c1.3-1.112,1.816-2.1,1.3-4.551a2.818,2.818,0,0,1-1.789,1.12,5.028,5.028,0,0,1-2.595-.3,8.148,8.148,0,0,0-2.614-.385c-3.537,0-5.692,1.718-5.692,4.461a4.1,4.1,0,0,0,1.487,3.257,2.8,2.8,0,0,0-.462,4.744,2.835,2.835,0,0,0-1.616,2.46c0,2.281,2.306,3.282,6.511,3.282,4.717,0,7.127-1.82,7.127-4.744C963.87,464.479,962.281,463.094,959.692,463.094Zm-3.18-6.844a1.481,1.481,0,1,1,0,2.949,1.481,1.481,0,1,1,0-2.949Zm.308,12.074c-2.076,0-2.537-.41-2.537-1.077a.97.97,0,0,1,.179-.539,7.412,7.412,0,0,0,.742.052H958.9c.512,0,.794.206.794.591C959.692,467.939,959.153,468.324,956.82,468.324Z" transform="translate(-783.675 -434.493)" fill="#48433d"/>
    <path id="Path_662" data-name="Path 662" d="M662.717,460.021V468.3h-4.588v-7.127a1.631,1.631,0,0,0-1.641-1.743,2.169,2.169,0,0,0-2.051,1.462v7.41H649.85V455.485h4.588v1.462A4.4,4.4,0,0,1,658.1,455.1C661.205,455.1,662.717,457.124,662.717,460.021Z" transform="translate(-541.076 -436.343)" fill="#48433d"/>
    <path id="Path_663" data-name="Path 663" d="M498.57,444.958v-4.846a8.935,8.935,0,0,0,6.256,2.718c1.179,0,1.795-.462,1.795-1.281,0-.616-.333-.948-1.231-1.281l-3.257-1.256a5.046,5.046,0,0,1-3.487-4.871c0-3.384,2.922-5.692,6.871-5.692a8.987,8.987,0,0,1,5.384,1.616v4.769a8.5,8.5,0,0,0-5.178-2.1c-.923,0-1.512.41-1.512,1.025,0,.564.333.9,1.1,1.179l3.024,1.2a4.991,4.991,0,0,1,3.411,4.973c0,3.768-2.82,6.05-7.229,6.05A8.456,8.456,0,0,1,498.57,444.958Z" transform="translate(-418.896 -414.819)" fill="#48433d"/>
    <g id="Group_64" data-name="Group 64" transform="translate(0)">
      <path id="Path_664" data-name="Path 664" d="M307.613,471.1a2.892,2.892,0,0,0-2.893,2.893h5.786A2.9,2.9,0,0,0,307.613,471.1Z" transform="translate(-262.335 -449.265)" fill="#48433d"/>
      <path id="Path_665" data-name="Path 665" d="M119.487,357.59A35.262,35.262,0,0,0,84.381,392.7c-.215,17.189,15.7,34.954,35.106,35.106a35.106,35.106,0,1,0,0-70.211Zm29.206,31.21c0,3.028-3.868,4.849-3.868,4.849a25.933,25.933,0,0,1-11.215,2.712,25.746,25.746,0,0,0,13.821.348c1.1,6.842-2.845,14.252-2.845,14.252a30.094,30.094,0,0,1-15.206-9.21,27.281,27.281,0,0,0,12.469,13.254,37.587,37.587,0,0,1-8.243,5.957c-6.425-4.32-11.1-13.854-11.1-13.854.785,6.844,4.1,12.663,6.132,15.82a28.877,28.877,0,0,1-9.354,1.32,26.351,26.351,0,0,1-4.8-11.888c-1.131,5.311-.86,7.9.021,11.513a30.749,30.749,0,0,1-8.885-2.818c-2.491-6.119.671-12.43.671-12.43a20.428,20.428,0,0,0,16.9-15.214A8.263,8.263,0,0,0,118.4,390.1s-1.068-7.425-7.35-9.682c.844,2.208,2.272,6.85-.558,9.187a6.069,6.069,0,0,0-3.134-3.443,5.451,5.451,0,0,1-.306,4.663c-3.732.129-7.435-1.924-7.887-2.61a5.336,5.336,0,0,0-2.957-5.78s-3.082,3.866.175,6.381a23.92,23.92,0,0,0-8.32,6.675,30.553,30.553,0,0,1,.569-9.458c5.652-10.2,18-9.095,18-9.095a23.577,23.577,0,0,0-14.591.187,38.5,38.5,0,0,1,2.2-3.353c6.282-8.121,16.353-4.5,16.353-4.5a19.138,19.138,0,0,0-7.258-3.7,29.821,29.821,0,0,1,15.418-4.434,31.762,31.762,0,0,1,13.627,2.716,10,10,0,0,0-9.964,7.7,6.6,6.6,0,0,0-6.519,5.036c.948-.24,1.916-.452,3.2-.669,12.75-2.152,24.626,3.412,30.685,10.085a4.441,4.441,0,0,1-.5.8c-1.562-.271-2.924-.6-4.488-.846C144.794,385.953,146.45,387.3,148.693,388.8Zm-44.254,6.525a2.095,2.095,0,0,1,4.19-.015Zm25.482-25.468h-3.672a1.836,1.836,0,0,1,3.672,0Z" transform="translate(-84.379 -357.59)" fill="#48433d"/>
    </g>
  </g>
</svg>
